<?xml version="1.0" encoding="utf-8"?>
<!-- Generator: Adobe Illustrator 24.1.2, SVG Export Plug-In . SVG Version: 6.00 Build 0)  -->
<svg version="1.1" id="Layer_1" xmlns="http://www.w3.org/2000/svg" xmlns:xlink="http://www.w3.org/1999/xlink" x="0px" y="0px"
	 viewBox="0 0 108.2 108.2" style="enable-background:new 0 0 108.2 108.2;" xml:space="preserve">
<style type="text/css">
	.st0{fill:#E20613;}
</style>
<rect width="108.2" height="108.2"/>
<g>
	<circle class="st0" cx="54.1" cy="54.1" r="42.79"/>
	<g>
		<path d="M35.81,65.32c1.79-0.3,3.44-1.19,4.75-2.57c1.25-1.32,2.07-3,2.39-4.82c0.14-0.82,0.11-2.18,0.11-2.18l-3.65-0.01
			c0,0,0,1.35-0.17,1.98c-0.23,0.86-0.66,1.64-1.26,2.28c-0.64,0.67-1.42,1.15-2.28,1.39c-0.43,0.12-1.34,0.17-1.34,0.17l-0.03,3.88
			c0.03,0,0.08,0,0.08,0S35.35,65.4,35.81,65.32z"/>
		<path d="M35.86,74.25c4.02-0.36,7.75-2.18,10.63-5.23c3.34-3.53,5.15-8.42,4.99-13.43l0.17-3.53v-0.05
			c-0.01-6.15,2.25-11.93,6.35-16.26c3.91-4.13,9.02-6.47,14.51-6.68c0.46-0.02,1.39,0,1.39,0l0.09-3.88c0,0-0.89-0.01-1.34,0
			c-6.53,0.17-12.61,2.92-17.24,7.82c-4.79,5.06-7.42,11.79-7.42,18.96l-0.17,3.6l0,0.09c0.15,4.02-1.24,7.79-3.92,10.62
			c-2.16,2.28-4.93,3.69-7.92,4.06c-0.52,0.06-1.59,0.09-1.59,0.09s-0.04,0-0.06,0l-0.01,3.87c0.02,0,0.07,0,0.07,0
			S35.37,74.29,35.86,74.25z"/>
		<path d="M63.82,41.9c2.35-2.48,5.37-3.91,8.64-4.12c0.46-0.03,1.41-0.02,1.41-0.02l0.14-3.87c0,0-1.07-0.02-1.59,0.01
			c-4.2,0.23-8.21,2.1-11.19,5.26c-0.2,0.21-0.4,0.43-0.59,0.65c-0.07,0.08-0.13,0.17-0.2,0.25c-0.12,0.14-0.24,0.29-0.35,0.43
			c-0.08,0.09-0.14,0.19-0.21,0.28c-0.1,0.14-0.21,0.28-0.31,0.42c-0.07,0.1-0.14,0.2-0.21,0.3c-0.09,0.14-0.19,0.28-0.28,0.42
			c-0.06,0.1-0.13,0.21-0.19,0.32c-0.09,0.14-0.18,0.29-0.26,0.43c-0.06,0.1-0.12,0.22-0.17,0.32c-0.08,0.15-0.16,0.3-0.24,0.45
			c-0.06,0.11-0.11,0.22-0.16,0.33c-0.07,0.15-0.15,0.3-0.21,0.46c-0.05,0.11-0.1,0.23-0.15,0.35c-0.06,0.15-0.13,0.3-0.19,0.45
			c-0.04,0.12-0.09,0.25-0.13,0.37c-0.06,0.15-0.11,0.3-0.17,0.45c-0.04,0.13-0.07,0.25-0.11,0.38c-0.05,0.16-0.1,0.31-0.15,0.46
			c-0.04,0.13-0.07,0.26-0.1,0.38c-0.04,0.16-0.08,0.31-0.12,0.47c-0.03,0.13-0.06,0.27-0.08,0.4c-0.04,0.16-0.07,0.31-0.1,0.47
			c-0.02,0.13-0.04,0.27-0.07,0.41c-0.02,0.16-0.05,0.31-0.07,0.47c-0.02,0.14-0.03,0.28-0.05,0.41c-0.02,0.16-0.04,0.32-0.06,0.48
			c-0.01,0.14-0.02,0.28-0.03,0.42c-0.01,0.16-0.03,0.32-0.03,0.48c-0.01,0.14-0.01,0.28-0.01,0.42c0,0.15-0.01,0.3-0.01,0.46
			l-0.17,3.59v0.07c0.15,6.36-2.1,12.33-6.33,16.8c-3.66,3.87-8.4,6.19-13.51,6.63c-0.61,0.05-1.22,0.08-1.84,0.08
			c-0.01,0-0.04,0-0.04,0l-0.01,3.87c0,0,0.03,0,0.05,0c0.53,0,1.05-0.02,1.57-0.05c6.19-0.4,11.95-3.13,16.37-7.8
			c4.94-5.21,7.56-12.16,7.4-19.57l0.17-3.55V52C59.87,48.19,61.27,44.6,63.82,41.9z"/>
	</g>
</g>
</svg>
